<svg width="16" height="16" viewBox="0 0 16 16" fill="none" xmlns="http://www.w3.org/2000/svg">
<path fill-rule="evenodd" clip-rule="evenodd" d="M14.9979 8.6269C15.3293 8.62819 15.599 8.36061 15.6003 8.02924C15.6016 7.69787 15.334 7.4282 15.0026 7.42691L8.60241 7.40193L8.62739 1.00174C8.62868 0.670373 8.3611 0.400698 8.02973 0.399405C7.69836 0.398112 7.42869 0.665691 7.42739 0.99706L7.40242 7.39725L1.00223 7.37228C0.670861 7.37099 0.401186 7.63857 0.399893 7.96993C0.3986 8.3013 0.666179 8.57098 0.997548 8.57227L7.39774 8.59724L7.37277 14.9974C7.37147 15.3288 7.63905 15.5985 7.97042 15.5998C8.30179 15.6011 8.57147 15.3335 8.57276 15.0021L8.59773 8.60193L14.9979 8.6269Z" fill="white"/>
</svg>
